<svg xmlns="http://www.w3.org/2000/svg" xmlns:xlink="http://www.w3.org/1999/xlink" width="320" height="320" viewBox="0 0 320 320" fill="none"><g opacity="1"  transform="translate(0 0)  rotate(0)"><rect fill="#000000" opacity="1" transform="translate(0 0)  rotate(0)" x="0" y="0" width="320" height="320" rx="64" ry="64"/><mask id="bg-mask-0" fill="white"><use transform="translate(0 0)  rotate(0)" xlink:href="#path_0"></use></mask><g mask="url(#bg-mask-0)" ><g opacity="1"  transform="translate(64 64)  rotate(0)"><mask id="bg-mask-1" fill="white"><use transform="translate(0 0)  rotate(0)" xlink:href="#path_1"></use></mask><g mask="url(#bg-mask-1)" ><path id="路径 1" fill-rule="evenodd" style="fill:#FFFFFF" opacity="1" d="M0 0L57.504 0L57.594 38.148C57.594 38.1645 57.5924 38.1809 57.5893 38.1971C57.5861 38.2134 57.5815 38.2291 57.5753 38.2444C57.5691 38.2597 57.5615 38.2742 57.5526 38.288C57.5436 38.3017 57.5334 38.3145 57.5219 38.3262C57.5105 38.3379 57.4981 38.3483 57.4847 38.3575C57.4712 38.3667 57.4571 38.3745 57.4422 38.3808C57.4272 38.3871 57.4118 38.3919 57.396 38.3951C57.3802 38.3984 57.3642 38.4 57.348 38.4L0 38.346L0 0Z"></path><path id="路径 2" fill-rule="evenodd" style="fill:#FFFFFF" opacity="1" d="M76.872 0L192 0L192 81.1379C190.996 102.77 184.784 122.274 173.364 139.65C155.136 167.388 126.336 185.946 93.45 190.8C90.766 191.196 86.888 191.596 81.816 192L76.812 192L76.83 153.942C76.834 153.73 76.942 153.624 77.154 153.624C105.234 153.336 130.464 138.384 144.042 113.952C149.038 104.96 152.066 95.3759 153.126 85.1999C153.498 81.6521 153.67 77.6717 153.642 73.2599C153.574 61.7921 153.568 50.424 153.624 39.156C153.628 38.652 153.378 38.4 152.874 38.4L77.256 38.4C76.952 38.4 76.8 38.25 76.8 37.95L76.872 0Z"></path><path id="路径 3" fill-rule="evenodd" style="fill:#FFFFFF" opacity="1" d="M0 95.946L0 57.642L57.12 57.606C57.1515 57.606 57.1827 57.6091 57.2136 57.6152C57.2445 57.6214 57.2745 57.6305 57.3036 57.6425C57.3327 57.6546 57.3604 57.6694 57.3866 57.6869C57.4128 57.7044 57.4371 57.7243 57.4594 57.7466C57.4816 57.7689 57.5016 57.7931 57.5191 57.8193C57.5366 57.8455 57.5514 57.8732 57.5634 57.9023C57.5755 57.9314 57.5846 57.9614 57.5907 57.9923C57.5969 58.0233 57.6 58.0545 57.6 58.086L57.6 95.67C57.6 95.89 57.49 96 57.27 96L0 95.946Z"></path><path id="路径 4" fill-rule="evenodd" style="fill:#FFFFFF" opacity="1" d="M76.8 115.044L76.8 57.81C76.8 57.7962 76.8014 57.7825 76.8042 57.769C76.8066 57.7555 76.8106 57.7424 76.8162 57.7297C76.8214 57.7169 76.8278 57.7048 76.8354 57.6933C76.843 57.6819 76.8518 57.6713 76.8618 57.6615C76.8714 57.6518 76.882 57.643 76.8936 57.6354C76.9048 57.6277 76.9168 57.6213 76.9296 57.616C76.9424 57.6107 76.9556 57.6067 76.9692 57.604C76.9828 57.6014 76.9964 57.6 77.01 57.6L114.99 57.606C115.004 57.606 115.017 57.6073 115.031 57.61C115.044 57.6128 115.058 57.6167 115.07 57.622C115.083 57.6273 115.095 57.6337 115.106 57.6414C115.118 57.6491 115.129 57.6577 115.138 57.6675C115.148 57.6773 115.157 57.6879 115.165 57.6993C115.172 57.7108 115.179 57.7229 115.184 57.7357C115.189 57.7484 115.193 57.7615 115.196 57.775C115.199 57.7885 115.2 57.8022 115.2 57.816L115.2 134.04C115.2 134.049 115.2 134.058 115.199 134.067C115.198 134.076 115.197 134.085 115.195 134.094C115.192 134.103 115.189 134.111 115.186 134.12C115.183 134.128 115.179 134.137 115.175 134.144C115.171 134.152 115.166 134.16 115.161 134.168C115.155 134.175 115.15 134.182 115.144 134.189C115.137 134.195 115.131 134.201 115.124 134.207C115.117 134.213 115.109 134.218 115.102 134.223C115.094 134.228 115.086 134.232 115.078 134.236C115.07 134.24 115.061 134.243 115.052 134.246C115.044 134.249 115.035 134.251 115.026 134.252C115.017 134.254 115.008 134.255 114.999 134.255C114.99 134.255 114.981 134.255 114.972 134.254C114.963 134.254 114.954 134.252 114.945 134.251C114.936 134.249 114.928 134.246 114.919 134.243C114.91 134.24 114.902 134.236 114.894 134.232L76.914 115.236C76.8964 115.227 76.8804 115.216 76.866 115.202C76.8516 115.189 76.8394 115.173 76.8294 115.156C76.8194 115.139 76.8118 115.121 76.8066 115.102C76.8018 115.083 76.7996 115.064 76.8 115.044Z"></path><path id="路径 5" fill-rule="evenodd" style="fill:#FFFFFF" opacity="1" d="M21.66 192L0 192L0 153.714L18.57 153.612C18.6111 153.612 18.6518 153.607 18.692 153.599C18.7323 153.59 18.7713 153.578 18.8092 153.562C18.8471 153.546 18.8831 153.527 18.9171 153.504C18.9512 153.481 18.9827 153.455 19.0116 153.425C19.0405 153.396 19.0663 153.364 19.089 153.33C19.1118 153.296 19.1309 153.26 19.1466 153.222C19.1622 153.184 19.1741 153.144 19.182 153.104C19.19 153.064 19.194 153.023 19.194 152.982L19.2 115.65C19.2 115.62 19.2029 115.591 19.2086 115.562C19.2144 115.533 19.2229 115.505 19.2342 115.478C19.2456 115.451 19.2594 115.425 19.2758 115.4C19.2922 115.375 19.3109 115.353 19.3318 115.332C19.3527 115.311 19.3754 115.292 19.4 115.276C19.4245 115.259 19.4505 115.245 19.4778 115.234C19.5051 115.223 19.5332 115.214 19.5622 115.208C19.5912 115.203 19.6204 115.2 19.65 115.2L57.1679 115.2C57.1971 115.2 57.2259 115.203 57.2546 115.208C57.2831 115.214 57.3109 115.223 57.3378 115.234C57.3648 115.245 57.3903 115.259 57.4146 115.276C57.4388 115.292 57.4613 115.311 57.4819 115.332C57.5025 115.353 57.5209 115.375 57.5371 115.4C57.5533 115.425 57.567 115.451 57.5781 115.478C57.5893 115.505 57.5977 115.533 57.6034 115.562C57.6091 115.591 57.6119 115.62 57.6119 115.65C57.5719 126.91 57.5799 138.31 57.6359 149.85C57.6599 154.558 57.3779 158.338 56.7899 161.19C54.7659 171.006 49.7219 178.864 41.6579 184.764C35.958 188.936 29.292 191.348 21.66 192Z"></path><path id="路径 6" fill-rule="evenodd" style="fill:#FFFFFF" opacity="1" d="M192 153.654L192 192L153.648 192L192 153.654Z"></path></g></g></g></g><defs><rect id="path_0" x="0" y="0" width="320" height="320" rx="64" ry="64"/><rect id="path_1" x="0" y="0" width="192" height="192" rx="0" ry="0"/></defs></svg>